<?xml version="1.0" encoding="utf-8"?>
<!-- Generator: Adobe Illustrator 21.0.0, SVG Export Plug-In . SVG Version: 6.00 Build 0)  -->
<svg version="1.1" id="Layer_1" xmlns="http://www.w3.org/2000/svg" xmlns:xlink="http://www.w3.org/1999/xlink" x="0px" y="0px"
	 viewBox="23 0 380 130" style="enable-background:new 0 0 380 130;" xml:space="preserve">
<style type="text/css">
	.st0{fill:#FFFFFF;}
</style>
<g>
	<path class="st0" d="M53.3,41.5v41.9h25.1v9.5H42V41.5H53.3z"/>
	<path class="st0" d="M82,49.9v-8.4h10.2v8.4H82z M92.2,55.7v37.2H82V55.7H92.2z"/>
	<path class="st0" d="M108.1,55.7v5.2h0.2c1.3-2.2,3-3.7,5-4.7c2.1-1,4.2-1.5,6.3-1.5c2.7,0,5,0.4,6.7,1.1c1.8,0.7,3.1,1.8,4.1,3.1
		s1.7,2.9,2.1,4.8c0.4,1.9,0.6,4,0.6,6.3v22.9h-10.2v-21c0-3.1-0.5-5.4-1.4-6.9c-1-1.5-2.7-2.3-5.1-2.3c-2.8,0-4.8,0.8-6,2.5
		s-1.9,4.4-1.9,8.2v19.5H98.4V55.7H108.1z"/>
	<path class="st0" d="M150.4,41.5v27.6l12.9-13.4h12.1l-14,13.7L177,92.9h-12.4l-10.2-16.6l-4,3.8v12.8h-10.2V41.5H150.4z"/>
	<path class="st0" d="M189.6,84c1.5,1.5,3.7,2.2,6.6,2.2c2.1,0,3.8-0.5,5.3-1.5s2.4-2.1,2.7-3.3h9c-1.4,4.5-3.6,7.7-6.6,9.6
		s-6.6,2.9-10.8,2.9c-2.9,0-5.6-0.5-7.9-1.4c-2.4-0.9-4.3-2.3-6-4c-1.6-1.7-2.9-3.8-3.8-6.2c-0.9-2.4-1.3-5-1.3-7.9
		c0-2.8,0.5-5.4,1.4-7.8s2.2-4.5,3.9-6.2c1.7-1.8,3.7-3.1,6-4.1s4.9-1.5,7.7-1.5c3.2,0,5.9,0.6,8.3,1.8c2.4,1.2,4.3,2.9,5.8,4.9
		c1.5,2.1,2.6,4.4,3.3,7.1c0.7,2.6,0.9,5.4,0.7,8.3H187C187.3,80.1,188.1,82.5,189.6,84z M201.2,64.4c-1.2-1.3-3.1-2-5.6-2
		c-1.6,0-3,0.3-4.1,0.8c-1.1,0.6-1.9,1.2-2.6,2.1c-0.6,0.8-1.1,1.7-1.4,2.6c-0.3,0.9-0.4,1.7-0.5,2.4h16.6
		C203.3,67.7,202.4,65.7,201.2,64.4z"/>
	<path class="st0" d="M244.6,88.2c-1.2,2-2.8,3.5-4.7,4.4s-4.1,1.3-6.6,1.3c-2.8,0-5.2-0.5-7.3-1.6s-3.9-2.5-5.2-4.4
		c-1.4-1.8-2.4-4-3.1-6.4c-0.7-2.4-1-4.9-1-7.5c0-2.5,0.3-4.9,1-7.2c0.7-2.3,1.7-4.4,3.1-6.2c1.4-1.8,3.1-3.2,5.1-4.3
		c2.1-1.1,4.5-1.6,7.2-1.6c2.2,0,4.3,0.5,6.3,1.4s3.6,2.3,4.7,4.1h0.1V41.5h10.2v51.4h-9.7v-4.8L244.6,88.2L244.6,88.2z M244.1,69.8
		c-0.3-1.4-0.8-2.7-1.5-3.7c-0.7-1.1-1.6-2-2.7-2.6c-1.1-0.7-2.5-1-4.2-1s-3.1,0.3-4.2,1c-1.2,0.7-2.1,1.6-2.8,2.7s-1.2,2.4-1.5,3.8
		s-0.5,2.9-0.5,4.4c0,1.4,0.2,2.9,0.5,4.3s0.9,2.7,1.6,3.9c0.7,1.1,1.7,2,2.8,2.7s2.5,1,4.1,1c1.7,0,3.1-0.3,4.2-1
		c1.1-0.7,2-1.6,2.7-2.7s1.2-2.4,1.4-3.9s0.4-2.9,0.4-4.5C244.6,72.7,244.4,71.2,244.1,69.8z"/>
	<path class="st0" d="M272.7,41.5v41.9h25.1v9.5h-36.4V41.5H272.7z"/>
	<path class="st0" d="M301.4,49.9v-8.4h10.2v8.4H301.4z M311.6,55.7v37.2h-10.2V55.7H311.6z"/>
	<path class="st0" d="M326.4,83.7c0.5,0.8,1,1.4,1.8,1.9c0.7,0.5,1.5,0.9,2.5,1.1c0.9,0.2,1.9,0.4,2.9,0.4c0.7,0,1.5-0.1,2.3-0.3
		c0.8-0.2,1.5-0.4,2.2-0.8s1.2-0.8,1.6-1.4s0.6-1.4,0.6-2.3c0-1.5-1-2.7-3.1-3.5c-2-0.8-4.9-1.5-8.5-2.3c-1.5-0.3-2.9-0.7-4.4-1.2
		c-1.4-0.5-2.7-1.1-3.8-1.8c-1.1-0.7-2-1.7-2.7-2.8c-0.7-1.1-1-2.5-1-4.1c0-2.4,0.5-4.4,1.4-5.9s2.2-2.7,3.7-3.6
		c1.5-0.9,3.3-1.5,5.2-1.9c1.9-0.4,3.9-0.5,5.9-0.5s4,0.2,5.9,0.6c1.9,0.4,3.6,1,5.1,1.9s2.7,2.1,3.7,3.6s1.6,3.4,1.8,5.7h-9.7
		c-0.1-2-0.9-3.3-2.2-4c-1.3-0.7-2.9-1-4.8-1c-0.6,0-1.2,0-1.9,0.1c-0.7,0.1-1.3,0.2-1.8,0.5c-0.6,0.2-1,0.6-1.4,1
		c-0.4,0.5-0.6,1.1-0.6,1.8c0,0.9,0.3,1.7,1,2.2c0.7,0.6,1.5,1,2.6,1.4s2.3,0.7,3.7,1c1.4,0.3,2.8,0.6,4.2,0.9
		c1.5,0.3,2.9,0.7,4.4,1.2c1.4,0.5,2.7,1.1,3.8,1.9c1.1,0.8,2,1.8,2.7,3s1,2.6,1,4.4c0,2.4-0.5,4.5-1.5,6.2s-2.3,3-3.9,4
		s-3.4,1.7-5.4,2.1s-4.1,0.6-6.2,0.6c-2.2,0-4.3-0.2-6.3-0.6c-2.1-0.4-3.9-1.2-5.5-2.2s-2.9-2.3-4-4c-1-1.7-1.6-3.7-1.7-6.2h9.7
		C325.7,81.9,325.9,82.9,326.4,83.7z"/>
	<path class="st0" d="M375,55.7v6.8h-7.5V81c0,1.7,0.3,2.9,0.9,3.5s1.7,0.9,3.5,0.9c0.6,0,1.1,0,1.7-0.1c0.5,0,1-0.1,1.5-0.2V93
		c-0.9,0.1-1.8,0.2-2.9,0.3c-1.1,0-2.1,0.1-3.1,0.1c-1.6,0-3.1-0.1-4.5-0.3c-1.4-0.2-2.7-0.6-3.7-1.3c-1.1-0.6-1.9-1.5-2.6-2.7
		c-0.6-1.2-0.9-2.7-0.9-4.5v-22h-6.2v-6.8h6.2V44.5h10.2v11.2H375z"/>
</g>
</svg>
